<?xml version="1.0" encoding="UTF-8" standalone="no"?>
<!-- Created with Inkscape (http://www.inkscape.org/) -->

<svg
   xmlns:dc="http://purl.org/dc/elements/1.1/"
   xmlns:cc="http://creativecommons.org/ns#"
   xmlns:rdf="http://www.w3.org/1999/02/22-rdf-syntax-ns#"
   xmlns:svg="http://www.w3.org/2000/svg"
   xmlns="http://www.w3.org/2000/svg"
   xmlns:sodipodi="http://sodipodi.sourceforge.net/DTD/sodipodi-0.dtd"
   xmlns:inkscape="http://www.inkscape.org/namespaces/inkscape"
   version="1.1"
   width="200"
   height="180"
   id="svg2"
   inkscape:version="0.48.5 r10040"
   sodipodi:docname="two_phase_draft_proof.svg">
  <sodipodi:namedview
     pagecolor="#ffffff"
     bordercolor="#666666"
     borderopacity="1"
     objecttolerance="10"
     gridtolerance="10"
     guidetolerance="10"
     inkscape:pageopacity="0"
     inkscape:pageshadow="2"
     inkscape:window-width="1920"
     inkscape:window-height="1057"
     id="namedview11"
     showgrid="false"
     inkscape:zoom="29.667058"
     inkscape:cx="88.553309"
     inkscape:cy="179.11377"
     inkscape:window-x="0"
     inkscape:window-y="0"
     inkscape:window-maximized="1"
     inkscape:current-layer="svg2" />
  <defs
     id="defs4" />
  <metadata
     id="metadata7">
    <rdf:RDF>
      <cc:Work
         rdf:about="">
        <dc:format>image/svg+xml</dc:format>
        <dc:type
           rdf:resource="http://purl.org/dc/dcmitype/StillImage" />
        <dc:title />
      </cc:Work>
    </rdf:RDF>
  </metadata>
  <g
     id="layer1">
    <path
       d="m 0,0 100,180 100,-180 z"
       id="path2985"
       style="fill:#ffffff;fill-rule:evenodd;stroke:#000000;stroke-width:3px;stroke-linecap:butt;stroke-linejoin:miter;stroke-opacity:1" />
    <path
       d="m 2,2 45,80 30,-80 z"
       id="path7"
       style="fill:#ff0000;fill-rule:evenodd;stroke:#000000;stroke-width:1px;stroke-linecap:butt;stroke-linejoin:miter;stroke-opacity:1" />
    <path
       d="m 100,2 -10,40 0,30 40,10 25,-20 -0,-60 z"
       id="path9"
       style="fill:#0086d9;fill-rule:evenodd;stroke:#000000;stroke-width:1px;stroke-linecap:butt;stroke-linejoin:miter;stroke-opacity:1" />
  </g>
  <path
     style="fill:#999999;fill-opacity:1;stroke:#999999;stroke-width:1;stroke-linecap:square;stroke-linejoin:miter;stroke-miterlimit:4;stroke-opacity:1;stroke-dasharray:none"
     d="M 73.900635,129.05979 47.883403,82.232024 62.882379,42.120124 77.881356,2.0082242 88.368644,1.9956375 C 91.538612,1.9918329 99.361543,1.72625 98.855932,2.3861523 98.721092,2.5621398 96.625,11.693412 93.898305,22.576271 l -4.957627,19.787017 0,15.183752 0,15.183751 20.602742,5.14447 20.60275,5.144469 3.28576,-2.573428 c 1.80716,-1.41538 7.6209,-6.005624 12.91942,-10.200539 l 9.63367,-7.627119 0.0371,-30.317797 0.0372,-30.3177962 20.2387,0 20.2387,0 -0.89541,1.7161017 C 193.82685,7.1766667 102.44722,171.75852 101.20462,173.787 l -1.286752,2.10056 z"
     id="path3762"
     inkscape:connector-curvature="0"
     sodipodi:nodetypes="ccccssscccccsscccccsscc" />
  <path
     style="fill:#999999;fill-opacity:1;stroke:#999999;stroke-width:0.09533899000000000;stroke-linecap:square;stroke-miterlimit:4;stroke-opacity:1;stroke-dasharray:none"
     d="M 99.334445,2.0874316 C 99.210364,1.7750407 98.852763,1.6343821 97.941201,1.5394132 c -0.133478,-0.013906 0.08553,-0.020816 0.730088,-0.023036 l 0.920766,-0.00317 -0.08392,0.3396452 c -0.04615,0.1868048 -0.09138,0.3480693 -0.100503,0.3583655 -0.0091,0.010296 -0.04206,-0.045408 -0.07319,-0.1237861 l 0,0 z"
     id="path2986"
     inkscape:connector-curvature="0" />
</svg>
